<?xml version="1.0" encoding="utf-8" ?>
<svg baseProfile="full" height="100" version="1.1" width="151" xmlns="http://www.w3.org/2000/svg" xmlns:ev="http://www.w3.org/2001/xml-events" xmlns:xlink="http://www.w3.org/1999/xlink"><defs /><path d="M 123,36 L 117,42 L 117,43 L 116,44 L 116,46 L 115,47 L 115,52 L 113,54 L 112,54 L 109,57 L 108,57 L 106,59 L 103,59 L 100,56 L 100,55 L 98,53 L 98,52 L 95,52 L 93,54 L 92,54 L 90,56 L 90,57 L 87,60 L 87,61 L 86,62 L 86,63 L 85,64 L 85,65 L 84,66 L 84,67 L 83,68 L 83,69 L 82,70 L 82,71 L 80,73 L 79,72 L 79,71 L 80,70 L 80,67 L 81,66 L 81,64 L 82,63 L 82,61 L 83,60 L 83,59 L 84,58 L 84,56 L 85,55 L 85,54 L 86,53 L 86,52 L 87,51 L 87,49 L 88,48 L 88,45 L 86,45 L 86,46 L 85,47 L 85,48 L 84,49 L 84,50 L 78,56 L 77,56 L 71,62 L 70,62 L 68,64 L 67,64 L 66,65 L 65,65 L 64,66 L 63,66 L 62,65 L 62,61 L 63,60 L 63,57 L 64,56 L 64,54 L 65,53 L 65,52 L 66,51 L 66,49 L 67,48 L 67,47 L 68,46 L 68,45 L 69,44 L 69,43 L 70,42 L 70,41 L 71,40 L 71,38 L 70,37 L 69,37 L 66,40 L 66,41 L 64,43 L 64,44 L 60,48 L 59,48 L 58,47 L 57,47 L 56,46 L 53,46 L 52,47 L 51,47 L 50,48 L 49,48 L 47,50 L 47,51 L 44,54 L 44,55 L 43,56 L 43,57 L 42,58 L 42,59 L 41,60 L 41,61 L 40,62 L 40,70 L 41,70 L 42,71 L 43,70 L 45,70 L 59,56 L 60,57 L 60,61 L 59,62 L 59,67 L 60,68 L 60,69 L 66,69 L 67,68 L 68,68 L 70,66 L 71,66 L 74,63 L 75,63 L 78,60 L 79,61 L 79,63 L 78,64 L 78,66 L 77,67 L 77,69 L 76,70 L 76,74 L 75,75 L 75,84 L 76,85 L 77,85 L 79,83 L 79,82 L 81,80 L 81,79 L 82,78 L 82,77 L 83,76 L 83,75 L 84,74 L 84,73 L 85,72 L 85,71 L 86,70 L 86,68 L 87,67 L 87,66 L 89,64 L 89,63 L 91,61 L 91,60 L 95,56 L 96,56 L 97,57 L 97,58 L 101,62 L 106,62 L 107,61 L 108,61 L 109,60 L 110,60 L 112,58 L 113,58 L 115,56 L 116,57 L 116,59 L 117,60 L 117,72 L 109,80 L 109,81 L 107,83 L 107,84 L 106,85 L 106,87 L 105,88 L 105,89 L 106,90 L 106,91 L 108,93 L 112,93 L 116,89 L 116,88 L 117,87 L 117,86 L 118,85 L 118,83 L 119,82 L 119,80 L 120,79 L 120,75 L 125,70 L 126,70 L 128,68 L 129,68 L 132,65 L 133,65 L 135,63 L 136,63 L 139,60 L 140,60 L 142,58 L 143,58 L 147,54 L 147,53 L 144,53 L 142,55 L 141,55 L 139,57 L 138,57 L 136,59 L 135,59 L 132,62 L 131,62 L 129,64 L 128,64 L 125,67 L 124,67 L 123,68 L 121,68 L 120,67 L 120,61 L 119,60 L 119,55 L 118,54 L 118,46 L 119,45 L 119,44 L 123,40 L 124,40 L 125,39 L 127,39 L 128,38 L 129,38 L 129,36 Z" fill="none" stroke="lime" stroke-width="2" /><path d="M 37,3 L 35,5 L 35,6 L 33,8 L 33,9 L 32,10 L 32,12 L 31,13 L 31,14 L 30,15 L 30,16 L 29,17 L 29,18 L 28,19 L 28,21 L 27,22 L 27,23 L 26,24 L 26,26 L 25,27 L 25,28 L 24,29 L 24,30 L 23,31 L 23,33 L 22,34 L 22,36 L 21,37 L 21,39 L 20,40 L 20,41 L 19,42 L 19,44 L 18,45 L 18,47 L 17,48 L 17,50 L 16,51 L 16,53 L 15,54 L 15,56 L 14,57 L 14,60 L 13,61 L 13,63 L 12,64 L 12,66 L 11,67 L 11,69 L 10,70 L 10,72 L 9,73 L 9,75 L 8,76 L 8,78 L 7,79 L 7,81 L 6,82 L 6,83 L 5,84 L 5,86 L 4,87 L 4,90 L 3,91 L 3,92 L 4,93 L 7,93 L 8,92 L 9,92 L 10,91 L 11,91 L 12,90 L 14,90 L 15,89 L 17,89 L 18,88 L 21,88 L 22,87 L 28,87 L 29,86 L 33,86 L 34,85 L 38,85 L 39,84 L 42,84 L 43,83 L 47,83 L 48,82 L 50,82 L 51,81 L 51,80 L 50,79 L 48,79 L 47,80 L 44,80 L 43,81 L 39,81 L 38,82 L 34,82 L 33,83 L 29,83 L 28,84 L 24,84 L 23,85 L 18,85 L 17,86 L 14,86 L 13,87 L 11,87 L 10,88 L 9,88 L 8,87 L 8,85 L 9,84 L 9,82 L 10,81 L 10,79 L 11,78 L 11,76 L 12,75 L 12,73 L 13,72 L 13,70 L 14,69 L 14,66 L 15,65 L 15,63 L 16,62 L 16,60 L 17,59 L 17,57 L 18,56 L 18,54 L 19,53 L 19,51 L 20,50 L 20,48 L 21,47 L 21,46 L 22,45 L 22,43 L 23,42 L 23,40 L 24,39 L 24,37 L 25,36 L 25,34 L 26,33 L 26,31 L 27,30 L 27,28 L 28,27 L 28,26 L 29,25 L 29,23 L 30,22 L 30,21 L 31,20 L 31,19 L 32,18 L 32,17 L 33,16 L 33,14 L 34,13 L 34,12 L 35,11 L 35,10 L 36,9 L 36,8 L 37,7 L 37,6 L 38,5 L 38,4 Z" fill="none" stroke="lime" stroke-width="2" /></svg>